<?xml version="1.0" standalone="no"?>
<!DOCTYPE svg PUBLIC "-//W3C//DTD SVG 20010904//EN"
 "http://www.w3.org/TR/2001/REC-SVG-20010904/DTD/svg10.dtd">
<svg version="1.0" xmlns="http://www.w3.org/2000/svg"
 width="512.000000pt" height="512.000000pt" viewBox="0 0 512.000000 512.000000"
 preserveAspectRatio="xMidYMid meet">
<metadata>
Created by potrace 1.14, written by Peter Selinger 2001-2017
</metadata>
<g transform="translate(0.000000,512.000000) scale(0.100000,-0.100000)"
fill="#000000" stroke="none">
<path d="M1304 5101 c-60 -37 -68 -125 -16 -173 24 -22 129 -98 210 -150 33
-22 75 -23 92 -3 11 13 21 8 71 -36 49 -42 57 -54 49 -69 -14 -26 -12 -66 3
-82 6 -8 37 -40 67 -72 52 -54 51 -59 -5 -36 -84 35 -269 87 -296 83 -58 -8
-99 -54 -99 -111 0 -49 8 -59 109 -141 89 -73 201 -179 261 -247 35 -39 120
-151 120 -158 0 -2 -30 4 -67 14 -36 11 -85 22 -107 26 -22 3 -43 7 -47 9 -15
10 -183 33 -290 40 -77 5 -88 4 -112 -15 -53 -42 -66 -105 -33 -156 9 -12 64
-48 123 -78 179 -91 356 -219 465 -334 53 -56 148 -179 148 -191 0 -5 -15 -14
-32 -22 -51 -20 -163 -94 -214 -141 -144 -133 -235 -322 -249 -518 -6 -86 -5
-1784 1 -1835 21 -176 135 -388 270 -502 66 -55 169 -116 250 -147 129 -49
192 -54 654 -54 489 0 525 3 661 56 85 32 193 100 255 159 45 42 121 134 143
173 45 78 65 121 88 199 l27 86 4 419 c4 454 3 457 -49 475 -28 10 -29 11 -29
85 0 68 2 76 19 76 11 0 29 12 41 27 20 26 21 34 20 417 -1 341 -4 401 -20
466 -41 173 -99 279 -215 395 -65 65 -106 97 -161 126 -24 13 -43 28 -41 34 5
18 240 130 352 169 61 21 124 44 142 53 53 26 72 107 37 161 -31 48 -75 55
-346 56 l-147 1 37 33 c74 65 178 142 253 185 85 50 111 99 85 161 -22 51 -52
71 -105 70 -92 -1 -180 -15 -353 -57 -39 -10 -55 -11 -51 -3 19 33 122 179
161 226 66 82 261 269 327 315 32 22 73 56 92 74 33 32 35 38 30 84 -6 67 -39
100 -104 103 -42 2 -164 -13 -257 -31 -56 -11 -241 -75 -290 -100 -27 -14 -51
-23 -53 -21 -7 6 132 142 201 196 77 60 86 74 86 128 0 48 -28 86 -75 102 -40
13 -172 -6 -283 -41 -79 -25 -198 -83 -228 -111 -25 -22 -35 -60 -23 -80 12
-18 -100 -120 -121 -112 -53 21 -80 5 -137 -77 l-46 -68 -36 37 c-128 131
-325 259 -516 337 -102 41 -320 100 -410 110 -33 4 -63 9 -66 11 -3 1 -48 5
-100 9 -82 5 -98 3 -125 -14z"/>
</g>
</svg>
